<svg xmlns:dc="http://purl.org/dc/elements/1.1/" xmlns:cc="http://creativecommons.org/ns#" xmlns:rdf="http://www.w3.org/1999/02/22-rdf-syntax-ns#" xmlns:svg="http://www.w3.org/2000/svg" xmlns="http://www.w3.org/2000/svg" xmlns:sodipodi="http://sodipodi.sourceforge.net/DTD/sodipodi-0.dtd" xmlns:inkscape="http://www.inkscape.org/namespaces/inkscape" version="1.1" x="0px" y="0px" viewBox="0 0 100 100"><g transform="translate(0,-952.36218)"><path style="font-size:medium;font-style:normal;font-variant:normal;font-weight:normal;font-stretch:normal;text-indent:0;text-align:start;text-decoration:none;line-height:normal;letter-spacing:normal;word-spacing:normal;text-transform:none;direction:ltr;block-progression:tb;writing-mode:lr-tb;text-anchor:start;baseline-shift:baseline;opacity:1;color:#000000;fill:#5571ff;fill-opacity:1;stroke:none;stroke-width:2;marker:none;visibility:visible;display:inline;overflow:visible;enable-background:accumulate;font-family:Sans;-inkscape-font-specification:Sans" d="M 49.875 15.96875 A 1.0001 1.0001 0 0 0 49 17 L 49 28.375 L 21.375 28.375 A 1.0001 1.0001 0 0 0 21.15625 28.375 A 1.0001 1.0001 0 0 0 20.5 28.875 L 4.125 57.5 A 1.0001 1.0001 0 0 0 4 58 L 4 83 A 1.0001 1.0001 0 0 0 5 84 L 95 84 A 1.0001 1.0001 0 0 0 96 83 L 96 58 A 1.0001 1.0001 0 0 0 95.875 57.5 L 79.5 28.875 A 1.0001 1.0001 0 0 0 78.625 28.375 L 51 28.375 L 51 17 A 1.0001 1.0001 0 0 0 49.875 15.96875 z M 21.90625 30.375 L 49 30.375 L 49 51.71875 L 39.6875 43.25 A 1.0001 1.0001 0 0 0 38.9375 42.96875 A 1.0001 1.0001 0 0 0 38.3125 44.71875 L 49.3125 54.71875 A 1.0001 1.0001 0 0 0 50.6875 54.71875 L 61.6875 44.71875 A 1.0059637 1.0059637 0 1 0 60.3125 43.25 L 51 51.71875 L 51 30.375 L 78.09375 30.375 L 93.28125 57 L 66 57 A 1.0001 1.0001 0 0 0 65 58 L 65 65 L 35 65 L 35 58 A 1.0001 1.0001 0 0 0 34 57 L 6.71875 57 L 21.90625 30.375 z M 6 59 L 33 59 L 33 66 A 1.0001 1.0001 0 0 0 34 67 L 66 67 A 1.0001 1.0001 0 0 0 67 66 L 67 59 L 94 59 L 94 82 L 6 82 L 6 59 z " transform="translate(0,952.36218)"/></g></svg>