<?xml version="1.0" encoding="utf-8" standalone="no"?><!DOCTYPE svg PUBLIC "-//W3C//DTD SVG 1.1//EN" "http://www.w3.org/Graphics/SVG/1.1/DTD/svg11.dtd">
<svg preserveAspectRatio="xMinYMin meet" width="100%" height="100%" viewBox="0 0 512.000 384.000"  version="1.1" xmlns="http://www.w3.org/2000/svg" xmlns:xlink="http://www.w3.org/1999/xlink">
  <desc>Matlab Figure Converted by PLOT2SVG written by Juerg Schwizer</desc>
  <g id="topgroup">
  <rect x="0" y="0" width="512.000" height="384.000" fill="#ffffff" stroke="none" />
  <g id ="ID000000">
  <clipPath id="ID000001">
    <rect x="66.560" y="28.800" width="396.800" height="295.960"/>
  </clipPath>
      <polygon fill="#ffffff" fill-opacity="1.00" stroke="none" stroke-width="0.5pt" stroke-opacity="1.00" stroke-dasharray="none" points="66.560,324.760 463.360,324.760 463.360,28.800 66.560,28.800 "/>
      <polygon fill="#ffffff" fill-opacity="1.00" stroke="none" stroke-width="0.5pt" stroke-opacity="1.00" stroke-dasharray="none" points="66.560,28.800 463.360,28.800 463.360,28.800 66.560,28.800 "/>
      <polygon fill="#ffffff" fill-opacity="1.00" stroke="none" stroke-width="0.5pt" stroke-opacity="1.00" stroke-dasharray="none" points="66.560,324.760 66.560,324.760 66.560,28.800 66.560,28.800 "/>
    <g>
<g id="ID000002" clip-path="url(#ID000001)" >
<g id="ID000003" clip-path="url(#ID000001)" >
      <polyline fill="none" stroke="#000000" stroke-width="0.5pt" stroke-dasharray="8.0,2.0" points="99.627,247.883 99.627,247.883 "/>
<g>
</g>
</g>
<g id="ID000004" clip-path="url(#ID000001)" >
      <polyline fill="none" stroke="#000000" stroke-width="0.5pt" stroke-dasharray="8.0,2.0" points="165.760,139.559 165.760,129.712 "/>
<g>
</g>
</g>
<g id="ID000005" clip-path="url(#ID000001)" >
      <polyline fill="none" stroke="#000000" stroke-width="0.5pt" stroke-dasharray="8.0,2.0" points="364.160,218.340 364.160,208.492 "/>
<g>
</g>
</g>
<g id="ID000006" clip-path="url(#ID000001)" >
      <polyline fill="none" stroke="#000000" stroke-width="0.5pt" stroke-dasharray="8.0,2.0" points="430.293,90.321 430.293,90.321 "/>
<g>
</g>
</g>
<g id="ID000007" clip-path="url(#ID000001)" >
      <polyline fill="none" stroke="#000000" stroke-width="0.5pt" stroke-dasharray="8.0,2.0" points="99.627,287.273 99.627,287.273 "/>
<g>
</g>
</g>
<g id="ID000008" clip-path="url(#ID000001)" >
      <polyline fill="none" stroke="#000000" stroke-width="0.5pt" stroke-dasharray="8.0,2.0" points="165.760,208.492 165.760,198.645 "/>
<g>
</g>
</g>
<g id="ID000009" clip-path="url(#ID000001)" >
      <polyline fill="none" stroke="#000000" stroke-width="0.5pt" stroke-dasharray="8.0,2.0" points="364.160,287.273 364.160,277.425 "/>
<g>
</g>
</g>
<g id="ID000010" clip-path="url(#ID000001)" >
      <polyline fill="none" stroke="#000000" stroke-width="0.5pt" stroke-dasharray="8.0,2.0" points="430.293,169.102 430.293,169.102 "/>
<g>
</g>
</g>
<g id="ID000011" clip-path="url(#ID000001)" >
      <polyline fill="none" stroke="#000000" stroke-width="0.5pt" stroke-dasharray="none" points="91.360,247.883 107.893,247.883 "/>
<g>
</g>
</g>
<g id="ID000012" clip-path="url(#ID000001)" >
      <polyline fill="none" stroke="#000000" stroke-width="0.5pt" stroke-dasharray="none" points="157.493,129.712 174.027,129.712 "/>
<g>
</g>
</g>
<g id="ID000013" clip-path="url(#ID000001)" >
      <polyline fill="none" stroke="#000000" stroke-width="0.5pt" stroke-dasharray="none" points="355.893,208.492 372.427,208.492 "/>
<g>
</g>
</g>
<g id="ID000014" clip-path="url(#ID000001)" >
      <polyline fill="none" stroke="#000000" stroke-width="0.5pt" stroke-dasharray="none" points="422.027,90.321 438.560,90.321 "/>
<g>
</g>
</g>
<g id="ID000015" clip-path="url(#ID000001)" >
      <polyline fill="none" stroke="#000000" stroke-width="0.5pt" stroke-dasharray="none" points="91.360,287.273 107.893,287.273 "/>
<g>
</g>
</g>
<g id="ID000016" clip-path="url(#ID000001)" >
      <polyline fill="none" stroke="#000000" stroke-width="0.5pt" stroke-dasharray="none" points="157.493,208.492 174.027,208.492 "/>
<g>
</g>
</g>
<g id="ID000017" clip-path="url(#ID000001)" >
      <polyline fill="none" stroke="#000000" stroke-width="0.5pt" stroke-dasharray="none" points="355.893,287.273 372.427,287.273 "/>
<g>
</g>
</g>
<g id="ID000018" clip-path="url(#ID000001)" >
      <polyline fill="none" stroke="#000000" stroke-width="0.5pt" stroke-dasharray="none" points="422.027,169.102 438.560,169.102 "/>
<g>
</g>
</g>
<g id="ID000019" clip-path="url(#ID000001)" >
      <polyline fill="none" stroke="#0000ff" stroke-width="0.5pt" stroke-dasharray="none" points="83.093,287.273 83.093,247.883 116.160,247.883 116.160,287.273 83.093,287.273 "/>
<g>
</g>
</g>
<g id="ID000020" clip-path="url(#ID000001)" >
      <polyline fill="none" stroke="#0000ff" stroke-width="0.5pt" stroke-dasharray="none" points="149.227,198.645 149.227,139.559 182.293,139.559 182.293,198.645 149.227,198.645 "/>
<g>
</g>
</g>
<g id="ID000021" clip-path="url(#ID000001)" >
      <polyline fill="none" stroke="#0000ff" stroke-width="0.5pt" stroke-dasharray="none" points="347.627,277.425 347.627,218.340 380.693,218.340 380.693,277.425 347.627,277.425 "/>
<g>
</g>
</g>
<g id="ID000022" clip-path="url(#ID000001)" >
      <polyline fill="none" stroke="#0000ff" stroke-width="0.5pt" stroke-dasharray="none" points="413.760,169.102 413.760,90.321 446.827,90.321 446.827,169.102 413.760,169.102 "/>
<g>
</g>
</g>
<g id="ID000023" clip-path="url(#ID000001)" >
      <polyline fill="none" stroke="#ff0000" stroke-width="0.5pt" stroke-dasharray="none" points="83.093,267.578 116.160,267.578 "/>
<g>
</g>
</g>
<g id="ID000024" clip-path="url(#ID000001)" >
      <polyline fill="none" stroke="#ff0000" stroke-width="0.5pt" stroke-dasharray="none" points="149.227,169.102 182.293,169.102 "/>
<g>
</g>
</g>
<g id="ID000025" clip-path="url(#ID000001)" >
      <polyline fill="none" stroke="#ff0000" stroke-width="0.5pt" stroke-dasharray="none" points="347.627,247.883 380.693,247.883 "/>
<g>
</g>
</g>
<g id="ID000026" clip-path="url(#ID000001)" >
      <polyline fill="none" stroke="#ff0000" stroke-width="0.5pt" stroke-dasharray="none" points="413.760,129.712 446.827,129.712 "/>
<g>
</g>
</g>
<g id="ID000027" clip-path="url(#ID000001)" >
<g>
</g>
</g>
<g id="ID000028" clip-path="url(#ID000001)" >
<g>
</g>
</g>
<g id="ID000029" clip-path="url(#ID000001)" >
<g>
</g>
</g>
<g id="ID000030" clip-path="url(#ID000001)" >
<g>
</g>
</g>
<g id="ID000031" >
  <g transform="translate(100.128,340.757)">
    <g transform="rotate(-0.0)">
      <text x="0.000" y="0.000" font-family="Helvetica" text-anchor="middle" font-size="10pt" fill="#000000" >1</text>
    </g>
  </g>
</g>
<g id="ID000032" >
  <g transform="translate(166.261,340.757)">
    <g transform="rotate(-0.0)">
      <text x="0.000" y="0.000" font-family="Helvetica" text-anchor="middle" font-size="10pt" fill="#000000" >2</text>
    </g>
  </g>
</g>
<g id="ID000033" >
  <g transform="translate(365.663,340.757)">
    <g transform="rotate(-0.0)">
      <text x="0.000" y="0.000" font-family="Helvetica" text-anchor="middle" font-size="10pt" fill="#000000" >3</text>
    </g>
  </g>
</g>
<g id="ID000034" >
  <g transform="translate(431.796,340.757)">
    <g transform="rotate(-0.0)">
      <text x="0.000" y="0.000" font-family="Helvetica" text-anchor="middle" font-size="10pt" fill="#000000" >4</text>
    </g>
  </g>
</g>
</g><g id="ID000035" >
</g>
<g id="ID000036" clip-path="url(#ID000001)" >
      <polygon fill="#ffff00" fill-opacity="0.50" stroke="#000000" stroke-width="0.5pt" stroke-opacity="1.00" stroke-dasharray="none" points="413.760,169.102 413.760,90.321 446.827,90.321 446.827,169.102 413.760,169.102 "/>
</g>
<g id="ID000037" clip-path="url(#ID000001)" >
      <polygon fill="#ffff00" fill-opacity="0.50" stroke="#000000" stroke-width="0.5pt" stroke-opacity="1.00" stroke-dasharray="none" points="347.627,277.425 347.627,218.340 380.693,218.340 380.693,277.425 347.627,277.425 "/>
</g>
<g id="ID000038" clip-path="url(#ID000001)" >
      <polygon fill="#00ffff" fill-opacity="0.50" stroke="#000000" stroke-width="0.5pt" stroke-opacity="1.00" stroke-dasharray="none" points="149.227,198.645 149.227,139.559 182.293,139.559 182.293,198.645 149.227,198.645 "/>
</g>
<g id="ID000039" clip-path="url(#ID000001)" >
      <polygon fill="#00ffff" fill-opacity="0.50" stroke="#000000" stroke-width="0.5pt" stroke-opacity="1.00" stroke-dasharray="none" points="83.093,287.273 83.093,247.883 116.160,247.883 116.160,287.273 83.093,287.273 "/>
</g>
<g id="ID000040" >
</g>
<g id="ID000041" >
</g>
    </g>
    <g>
      <polyline fill="none" stroke="#000000" stroke-width="0.5pt" stroke-dasharray="none" points="66.560,324.760 463.360,324.760 "/>
      <polyline fill="none" stroke="#000000" stroke-width="0.5pt" stroke-dasharray="none" points="66.560,28.800 463.360,28.800 "/>
      <polyline fill="none" stroke="#000000" stroke-width="0.5pt" stroke-dasharray="none" points="66.560,287.273 70.528,287.273 "/>
      <polyline fill="none" stroke="#000000" stroke-width="0.5pt" stroke-dasharray="none" points="66.560,247.883 70.528,247.883 "/>
      <polyline fill="none" stroke="#000000" stroke-width="0.5pt" stroke-dasharray="none" points="66.560,208.492 70.528,208.492 "/>
      <polyline fill="none" stroke="#000000" stroke-width="0.5pt" stroke-dasharray="none" points="66.560,169.102 70.528,169.102 "/>
      <polyline fill="none" stroke="#000000" stroke-width="0.5pt" stroke-dasharray="none" points="66.560,129.712 70.528,129.712 "/>
      <polyline fill="none" stroke="#000000" stroke-width="0.5pt" stroke-dasharray="none" points="66.560,90.321 70.528,90.321 "/>
      <polyline fill="none" stroke="#000000" stroke-width="0.5pt" stroke-dasharray="none" points="66.560,50.931 70.528,50.931 "/>
      <polyline fill="none" stroke="#000000" stroke-width="0.5pt" stroke-dasharray="none" points="66.560,324.760 66.560,28.800 "/>
      <polyline fill="none" stroke="#000000" stroke-width="0.5pt" stroke-dasharray="none" points="463.360,287.273 459.392,287.273 "/>
      <polyline fill="none" stroke="#000000" stroke-width="0.5pt" stroke-dasharray="none" points="463.360,247.883 459.392,247.883 "/>
      <polyline fill="none" stroke="#000000" stroke-width="0.5pt" stroke-dasharray="none" points="463.360,208.492 459.392,208.492 "/>
      <polyline fill="none" stroke="#000000" stroke-width="0.5pt" stroke-dasharray="none" points="463.360,169.102 459.392,169.102 "/>
      <polyline fill="none" stroke="#000000" stroke-width="0.5pt" stroke-dasharray="none" points="463.360,129.712 459.392,129.712 "/>
      <polyline fill="none" stroke="#000000" stroke-width="0.5pt" stroke-dasharray="none" points="463.360,90.321 459.392,90.321 "/>
      <polyline fill="none" stroke="#000000" stroke-width="0.5pt" stroke-dasharray="none" points="463.360,50.931 459.392,50.931 "/>
      <polyline fill="none" stroke="#000000" stroke-width="0.5pt" stroke-dasharray="none" points="463.360,324.760 463.360,28.800 "/>
  <g transform="translate(58.624,291.773)">
    <g transform="rotate(-0.0)">
      <text x="0.000" y="0.000" font-family="Helvetica" text-anchor="end" font-size="10pt" fill="#000000" >1</text>
    </g>
  </g>
  <g transform="translate(58.624,252.383)">
    <g transform="rotate(-0.0)">
      <text x="0.000" y="0.000" font-family="Helvetica" text-anchor="end" font-size="10pt" fill="#000000" >2</text>
    </g>
  </g>
  <g transform="translate(58.624,212.992)">
    <g transform="rotate(-0.0)">
      <text x="0.000" y="0.000" font-family="Helvetica" text-anchor="end" font-size="10pt" fill="#000000" >3</text>
    </g>
  </g>
  <g transform="translate(58.624,173.602)">
    <g transform="rotate(-0.0)">
      <text x="0.000" y="0.000" font-family="Helvetica" text-anchor="end" font-size="10pt" fill="#000000" >4</text>
    </g>
  </g>
  <g transform="translate(58.624,134.212)">
    <g transform="rotate(-0.0)">
      <text x="0.000" y="0.000" font-family="Helvetica" text-anchor="end" font-size="10pt" fill="#000000" >5</text>
    </g>
  </g>
  <g transform="translate(58.624,94.821)">
    <g transform="rotate(-0.0)">
      <text x="0.000" y="0.000" font-family="Helvetica" text-anchor="end" font-size="10pt" fill="#000000" >6</text>
    </g>
  </g>
  <g transform="translate(58.624,55.431)">
    <g transform="rotate(-0.0)">
      <text x="0.000" y="0.000" font-family="Helvetica" text-anchor="end" font-size="10pt" fill="#000000" >7</text>
    </g>
  </g>
      <polyline fill="none" stroke="#000000" stroke-width="0.5pt" stroke-dasharray="none" points="66.560,324.760 66.560,321.800 "/>
      <polyline fill="none" stroke="#000000" stroke-width="0.5pt" stroke-dasharray="none" points="66.560,324.760 66.560,324.760 "/>
    </g>
  </g>
  </g>
</svg>
