<svg xmlns="http://www.w3.org/2000/svg" xmlns:xlink="http://www.w3.org/1999/xlink" version="1.1" x="0px" y="0px" viewBox="0 0 100 100" enable-background="new 0 0 100 100" xml:space="preserve" fill="#559911"><g><path d="M92.5,9H24.937v24.738c-3.396,2.232-5.646,6.071-5.646,10.43c0,6.881,5.599,12.479,12.48,12.479   c6.881,0,12.479-5.598,12.479-12.479c0-6.881-5.598-12.48-12.479-12.48c-1.525,0-2.981,0.289-4.333,0.792V11.5H90V90H55.989v-6.89   c0-13.354-10.865-24.22-24.22-24.22c-13.354,0-24.219,10.865-24.219,24.22v11.202h48.439V92.5H92.5V9z M41.749,44.168   c0,5.502-4.477,9.979-9.979,9.979c-5.503,0-9.98-4.477-9.98-9.979c0-5.503,4.477-9.98,9.98-9.98   C37.272,34.188,41.749,38.665,41.749,44.168z M22.65,69.644v-6.238c0.9-0.418,1.831-0.778,2.792-1.072l5.077,12.744v7.8   l-4.092-4.767v-8.467H22.65z M33.02,75.075l5.073-12.743c0.962,0.294,1.895,0.654,2.796,1.073v6.238h-3.777v8.467l-4.092,4.767   V75.075z M35.637,61.742l-3.868,9.716l-3.871-9.715c1.257-0.228,2.549-0.353,3.871-0.353C33.09,61.391,34.381,61.516,35.637,61.742   z M10.05,83.11c0-7.704,4.036-14.479,10.1-18.336v7.369h3.777v6.893l6.592,7.68v5.097h-9.596v-8.466h-2.5v8.466H10.05V83.11z    M53.489,91.813h-6.93v-8.466h-2.5v8.466H33.02v-5.098l6.592-7.679v-6.893h3.777v-7.37c6.065,3.857,10.101,10.633,10.101,18.337   V91.813z"/><path d="M86.25,14.625H30.519V28.5H86.25V14.625z M83.75,26H33.019v-8.875H83.75V26z"/><rect x="46.625" y="33" width="38.375" height="2.5"/><rect x="46.625" y="38" width="38.375" height="2.5"/><rect x="46.625" y="43" width="38.375" height="2.5"/><rect x="46.625" y="48" width="38.375" height="2.5"/><polygon points="43.75,58.25 66.125,58.25 66.125,70.75 56.75,70.75 56.75,73.25 68.625,73.25 68.625,55.75 43.75,55.75  "/><rect x="71.75" y="55.75" width="13.25" height="2.5"/><rect x="71.75" y="60.75" width="13.25" height="2.5"/><rect x="71.75" y="65.75" width="13.25" height="2.5"/><rect x="71.75" y="70.75" width="13.25" height="2.5"/><rect x="62.625" y="79.75" width="22.375" height="2.5"/></g></svg>