<svg xmlns:dc="http://purl.org/dc/elements/1.1/" xmlns:cc="http://creativecommons.org/ns#" xmlns:rdf="http://www.w3.org/1999/02/22-rdf-syntax-ns#" xmlns:svg="http://www.w3.org/2000/svg" xmlns="http://www.w3.org/2000/svg" xmlns:sodipodi="http://sodipodi.sourceforge.net/DTD/sodipodi-0.dtd" xmlns:inkscape="http://www.inkscape.org/namespaces/inkscape" viewBox="0 0 25 25" version="1.1" x="0px" y="0px"><g transform="translate(0,-1027.3622)"><g style="" transform="translate(4.499,-4.49899)" fill="#ff2244"><path style="" d="M 12.5 0 A 12.5 12.5 0 0 0 0 12.5 A 12.5 12.5 0 0 0 12.5 25 A 12.5 12.5 0 0 0 25 12.5 A 12.5 12.5 0 0 0 12.5 0 z M 12.5 5.5 C 16.360071 5.5 19.5 8.64 19.5 12.5 C 19.5 16.3601 16.360071 19.5 12.5 19.5 C 8.639929 19.5 5.5 16.3601 5.5 12.5 C 5.5 8.64 8.639929 5.5 12.5 5.5 z M 12.5 6.5 C 9.1803692 6.5 6.5 9.1804 6.5 12.5 C 6.5 15.8197 9.1803692 18.5 12.5 18.5 C 15.819631 18.5 18.5 15.8197 18.5 12.5 C 18.5 9.1804 15.819631 6.5 12.5 6.5 z M 12 8.5 L 13 8.5 L 13 9.5 L 12 9.5 L 12 8.5 z M 12 10.5 L 13 10.5 L 13 16.5 L 12 16.5 L 12 10.5 z " transform="translate(-4.499,1031.8612)" fill="#ff2244" fill-opacity="1" fill-rule="evenodd" stroke="none"/></g></g></svg>